<svg id="svg"
  xmlns="http://www.w3.org/2000/svg"
  xmlns:xlink="http://www.w3.org/1999/xlink" viewBox="0 0 100 100" version="1.1">
  <g transform="translate(0,15.20473)">
    <path stroke="none" fill="currentColor" fill-rule="evenodd" d="M30.843,0.111C23.377,1.266,18.184,7.704,18.724,15.138C19.415,24.656,14.600,36.298,7.192,43.020C1.522,48.165,4.290e-7,50.851,4.290e-7,55.709C4.290e-7,68.270,15.315,74.244,23.969,65.058C26.730,62.127,27.596,59.462,27.683,53.630C27.861,41.652,32.117,32.543,41.152,24.806C47.439,19.422,48.166,10.607,42.822,4.551C40.098,1.463,34.799,-0.500,30.843,0.111M65.424,0.171C60.886,0.838,56.728,3.947,54.859,8.069C53.822,10.356,53.685,11.179,53.535,16.052C53.158,28.288,48.730,37.776,40.155,44.721C34.092,49.631,33.085,58.354,37.885,64.394C43.987,72.072,56.319,70.894,60.842,62.200C62.153,59.681,62.372,58.544,62.528,53.464C62.730,46.873,63.433,43.448,65.605,38.468C67.958,33.073,70.721,29.454,76.269,24.497C86.722,15.159,79.141,-1.844,65.424,0.171M84.411,29.861C80.154,31.422,72.349,45.222,71.682,52.365C70.378,66.334,84.898,74.794,95.103,66.011C100.238,61.591,101.363,55.321,98.343,47.950C92.965,34.826,88.099,28.508,84.411,29.861"></path>
  </g>
</svg>