<svg id="svg" xmlns="http://www.w3.org/2000/svg" xmlns:xlink="http://www.w3.org/1999/xlink" viewBox="0 0 100 100" version="1.1">
  <g transform="translate(0,14.317035)">
    <path fill="none" stroke="currentColor" stroke-width="5" d="M31.957,2.961C24.907,4.052,20.003,10.131,20.513,17.151C21.165,26.138,16.619,37.131,9.624,43.479C4.270,48.337,2.832,50.874,2.832,55.461C2.832,67.322,17.294,72.963,25.466,64.289C28.073,61.521,28.891,59.005,28.973,53.498C29.141,42.187,33.160,33.586,41.691,26.280C47.628,21.196,48.314,12.872,43.268,7.154C40.696,4.238,35.692,2.384,31.957,2.961M64.611,3.018C60.325,3.647,56.399,6.583,54.634,10.476C53.655,12.635,53.526,13.412,53.384,18.014C53.028,29.568,48.847,38.527,40.750,45.085C35.025,49.721,34.074,57.958,38.606,63.662C44.368,70.912,56.013,69.800,60.284,61.590C61.522,59.211,61.729,58.138,61.876,53.341C62.067,47.117,62.731,43.883,64.782,39.181C67.003,34.086,69.612,30.669,74.851,25.988C84.722,17.170,77.563,1.115,64.611,3.018M82.540,31.053C78.520,32.527,71.150,45.558,70.520,52.303C69.289,65.494,82.999,73.482,92.636,65.189C97.485,61.015,98.547,55.094,95.695,48.134C90.617,35.741,86.022,29.776,82.540,31.053"></path>
  </g>
</svg>